# xmcd
#
# Track frame offsets: 
#        150
#        42531
#        86563
#        111907
#        164085
#
# Disc length: 2752 seconds
#
# Revision: 7
# Processed by: cddbd v1.5.2PL0 Copyright (c) Steve Scherf et al.
# Submitted via: ExactAudioCopyFreeDBPlugin 1.0
#
DISCID=410abe05
DTITLE=Miles Davis - Kind of Blue
DYEAR=1959
DGENRE=Jazz
TTITLE0=So What
TTITLE1=Freddie Freeloader
TTITLE2=Blue in Green
TTITLE3=All Blues
TTITLE4=Flamenco Sketches
EXTD=Miles Davis, trumpet\nCannonball Adderley, alto sax\nJohn Coltran
EXTD=e, tenor sax\nWynton Kelly, piano\nBill Evans, piano\nPaul Chambe
EXTD=rs, bass\nJimmy Cobb, drums\n YEAR: 1959
EXTT0=
EXTT1=
EXTT2=
EXTT3=
EXTT4=
PLAYORDER=
